<mxfile host="Electron" modified="2024-11-22T15:26:34.951Z" agent="Mozilla/5.0 (Windows NT 10.0; Win64; x64) AppleWebKit/537.36 (KHTML, like Gecko) draw.io/24.4.8 Chrome/124.0.6367.207 Electron/30.0.6 Safari/537.36" etag="rOWhJZQjBnVIm77aOgn6" version="24.4.8" type="device">
  <diagram name="Page-1" id="tMxC0Fnka68tXwq8qv6l">
    <mxGraphModel dx="619" dy="412" grid="1" gridSize="10" guides="1" tooltips="1" connect="1" arrows="1" fold="1" page="1" pageScale="1" pageWidth="1169" pageHeight="827" math="0" shadow="0">
      <root>
        <mxCell id="0" />
        <mxCell id="1" parent="0" />
        <mxCell id="o7OlYgjfnsFgOud8zuxA-3" style="edgeStyle=orthogonalEdgeStyle;rounded=0;orthogonalLoop=1;jettySize=auto;html=1;exitX=0.5;exitY=1;exitDx=0;exitDy=0;entryX=0.5;entryY=0;entryDx=0;entryDy=0;" parent="1" source="o7OlYgjfnsFgOud8zuxA-1" target="o7OlYgjfnsFgOud8zuxA-2" edge="1">
          <mxGeometry relative="1" as="geometry" />
        </mxCell>
        <mxCell id="o7OlYgjfnsFgOud8zuxA-4" value="Arrows!" style="edgeLabel;html=1;align=center;verticalAlign=middle;resizable=0;points=[];" parent="o7OlYgjfnsFgOud8zuxA-3" vertex="1" connectable="0">
          <mxGeometry x="-0.1145" y="1" relative="1" as="geometry">
            <mxPoint x="-1" as="offset" />
          </mxGeometry>
        </mxCell>
        <mxCell id="o7OlYgjfnsFgOud8zuxA-1" value="I&#39;m a fancy diagram!" style="rounded=0;whiteSpace=wrap;html=1;" parent="1" vertex="1">
          <mxGeometry x="520" y="240" width="120" height="30" as="geometry" />
        </mxCell>
        <mxCell id="o7OlYgjfnsFgOud8zuxA-2" value="Isn&#39;t this nice?" style="rounded=0;whiteSpace=wrap;html=1;" parent="1" vertex="1">
          <mxGeometry x="520" y="320" width="120" height="30" as="geometry" />
        </mxCell>
      </root>
    </mxGraphModel>
  </diagram>
</mxfile>
